<?xml version="1.0" encoding="UTF-8"?>
<svg id="Layer_1" data-name="Layer 1" xmlns="http://www.w3.org/2000/svg" viewBox="0 0 250 170.04">
  <defs>
    <style>
      .cls-1 {
        fill: #f7913f;
      }

      .cls-1, .cls-2, .cls-3, .cls-4 {
        stroke-width: 0px;
      }

      .cls-2 {
        fill: #fff;
      }

      .cls-3 {
        fill: #29292a;
      }

      .cls-4 {
        fill: #dc3127;
      }
    </style>
  </defs>
  <path class="cls-4" d="M109.71,12.72c4.66-1.89,9.4-3.31,14.41-3.74,2.69-.23,5.33-.05,7.87.94,2.96,1.15,4.27,3.35,3.91,6.54-.05.42-.08.84-.12,1.37,4.13-.83,8.19-1.54,12.31-1.41,3.23.1,6.43.52,9.37,1.96,3.21,1.57,4.3,4.47,3.06,8.29-.33,1.01-.17,1.04.77,1,5.33-.25,10.57.16,15.5,2.42,4.34,1.99,5.57,4.89,4,9.48,3.81.55,7.44,1.68,10.74,3.62,9.42,5.53,14.17,13.96,14.86,24.73.43,6.75-1.41,12.92-5.34,18.42-.88,1.23.07,2.04.39,2.95.15.43.74-.14,1.11-.28,6.39-2.4,12.76-4.85,19.39-6.48,4.1-1,8.22-2.03,12.54-1.25,3.33.6,5.09,2.62,4.95,5.96-.27,6.29-2.65,11.95-5.33,17.49-1.75,3.61-3.79,7.08-6.41,10.14-.7.82-.83,1.49-.5,2.48,1.8,5.35,3.14,10.8,3.64,16.44.18,2.07.21,4.17-.22,6.19-.98,4.62-4.26,7.26-9.17,7.45-5.95.23-11.32-1.84-16.48-4.51-5.08-2.62-9.77-5.84-14.19-9.46-.54-.44-.85-.62-1.42,0-1.14,1.24-2.36,2.42-3.8,3.35-.44.28-.59.6-.38,1.21,2.93,8.66-1.69,14.81-9.12,17.99-7.13,3.05-14.55,3.25-22.05,1.25-2.53-.68-4.95-1.57-7.3-2.7-.68-.32-1.41-.38-2.22-.21-7.84,1.66-15.75,2.88-23.79,3.05-6.55.14-13.08,0-19.57-.96-1.28-.19-1.78-.05-2.22,1.42-.99,3.35-3.47,5.45-6.82,6.45-4.23,1.26-8.43.74-12.55-.47-7.06-2.08-12.68-6.26-17.21-11.99-.3-.39-.69-.75-.86-1.2-1.15-3.11-3.63-4.53-6.51-5.83-10.43-4.74-19.38-11.52-26.9-20.2-8.02-9.26-13.67-19.73-16.29-31.75-.96-4.41-1.57-8.88-.9-13.41.7-4.79,3.2-8.37,7.43-10.7.62-.34,1.08-.72,1.27-1.38,2.22-7.52,6.16-14.11,11.31-19.9,10.04-11.28,22.39-18.94,37.07-22.69.97-.25,1.59-.8,2.21-1.51,6.3-7.14,13.67-12.8,22.61-16.27,2.89-1.13,5.87-1.87,8.99-2.05,3.42-.2,6.2,1.61,7.25,4.87.3.92.47,1.88.71,2.87ZM205.64,93.73c-.36.15-.73.3-1.09.45-2.83,1.15-5.69,2.25-8.49,3.47-.93.4-1.24.47-1.33-.73-.32-4.21-1.13-8.33-2.91-12.2-.42-.92-.09-1.49.52-2.16,3.33-3.64,5.47-7.92,6.1-12.8.56-4.27.1-8.49-1.75-12.47-3.23-6.96-8.47-11.37-16.12-12.72-3.4-.6-6.73.12-10.06.69-1.12.19-2.25.51-3.64.18.56-.45.96-.73,1.31-1.06,2.17-1.98,4.53-3.8,5.83-6.55,1.09-2.3.67-3.46-1.69-4.32-1.17-.42-2.4-.77-3.63-.94-5.02-.71-9.99-.29-14.94.73-2.75.57-5.47,1.38-8.44,1.54.51-.98,1.24-1.46,1.89-2.04,2.28-2.04,4.54-4.13,5.95-6.9,1.38-2.7.6-4.14-2.31-4.61-5.37-.87-10.55.22-15.66,1.63-4.84,1.34-9.51,3.22-14.2,5.02l-.08-.12c.15-.88.88-1.35,1.41-1.96,2.28-2.64,4.68-5.17,5.9-8.56.83-2.31-.19-4-2.62-3.97-1.95.03-3.9.25-5.82.7-6.23,1.46-11.85,4.32-17.33,7.51-2.3,1.34-4.55,2.76-6.83,4.14.17-.71.48-1.22.84-1.68,1.92-2.46,3.58-5.05,4.53-8.06.71-2.23.32-4.52-1.09-5.41-.97-.85-1.96-.2-2.84.09-7.97,2.64-14.04,7.87-19.23,14.27-.15.16-.3.32-.44.48-1.47,1.69-2.55,3.57-5.17,4.16-8.13,1.83-15.54,5.44-22.3,10.31-5.57,4.01-10.55,8.65-14.65,14.18-3.24,4.37-5.97,9.04-7.44,14.29-.53,1.88-1.33,3.13-3.08,4.04-2.39,1.24-4.07,3.26-5.08,5.79-.92,2.31-.49,4.67,1.47,6.19,3.54,2.74,7.48,2.96,11.59,1.34,1.6-.63,2.95-1.64,4.34-2.62.79-.56,1.75-.83,2.56-.03.78.76,1.18,1.6.59,2.78-.77,1.53-2.1,2.39-3.51,3.08-5.1,2.51-10.22,2.99-15.3-.14-.37-.23-.82-.73-1.33-.4-.54.35-.17.93-.1,1.37.91,5.89,2.92,11.39,5.88,16.56,0,1.16,1.01,1.76,1.49,2.66,2.22,4.1,5.08,7.75,8.19,11.17,5.2,5.74,11,10.83,17.56,15.02,4.37,2.79,8.86,5.32,13.65,7.3.32.06.63.13.95.19.17.24.34.47.51.71.2,1.07.52,2.11,1.04,3.08,3.12,5.8,7.84,9.74,14.12,11.63,4.04,1.22,8.42-.19,8.78-5.39.06-.92.31-1.81.15-2.76-.14-.81.21-1.09,1.05-.73,1.17.5,2.45.56,3.69.64,5.09.33,10.16.9,15.27.94,1.41,0,2.82-.02,4.23-.03,6.71-.03,13.38-.58,19.96-1.82,6.92-1.29,13.75-2.96,20.33-5.54,6.57-2.57,12.91-5.58,18.76-9.52,5.22-3.51,9.99-7.59,14.15-12.33.67-.76,1.03-.65,1.69-.07.93.82,1.85,1.73,3.2,1.85-.04.45.28.67.58.92,3.21,2.7,6.34,5.52,9.65,8.1,3.49,2.71,7.21,5.08,11.43,6.62,3.81,1.39,5.79-.38,6.17-3.61.06-.54.13-1.09.2-1.63.02-1.46.28-2.94-.29-4.36,0-.43.04-.87-.01-1.3-.57-4.67-1.73-9.21-3.26-13.65-.23-.68-.43-1.22.22-1.9,2.21-2.34,4.1-4.94,5.8-7.69,3.28-5.31,5.87-10.91,7.52-16.94.3-1.09-.02-1.76-1.28-1.56-1.28.2-2.61.05-3.84.59-.9.18-1.81.34-2.71.54-6.61,1.43-12.86,3.95-19.16,6.3ZM155.56,150.12c.62.79,1.27,1.02,1.87,1.21,5.46,1.8,10.89,1.55,16.02-.98,3.3-1.62,5.77-4.12,5.52-8.27-.04-.69.14-1.62-.51-1.93-.51-.24-1.18.37-1.73.72-4.46,2.87-9.2,5.17-14.19,6.99-2.24.82-4.48,1.63-6.99,2.27Z"/>
  <path class="cls-1" d="M231.36,86.31c-1.28.2-2.61.05-3.84.59.11.2.16.39.19.57-.03-.18-.08-.37-.19-.57-.9.18-1.81.34-2.71.54-6.61,1.43-12.86,3.95-19.16,6.3-.36.15-.73.3-1.09.45h0c-2.83,1.15-5.69,2.25-8.49,3.47-.93.4-1.24.47-1.33-.73-.32-4.21-1.13-8.33-2.91-12.2-.42-.92-.09-1.49.52-2.16,3.33-3.64,5.47-7.92,6.1-12.8.56-4.27.1-8.49-1.75-12.47-3.23-6.96-8.47-11.37-16.12-12.72-3.4-.6-6.73.12-10.06.69-1.12.19-2.25.51-3.64.18.56-.45.96-.73,1.31-1.06,2.17-1.98,4.53-3.8,5.83-6.55,1.09-2.3.67-3.46-1.69-4.32-1.17-.42-2.4-.77-3.63-.94-5.02-.71-9.99-.29-14.94.73-2.75.57-5.47,1.38-8.44,1.54.51-.98,1.24-1.46,1.89-2.04,2.28-2.04,4.54-4.13,5.95-6.9,1.38-2.7.6-4.14-2.31-4.61-5.37-.87-10.55.22-15.66,1.63-4.84,1.34-9.51,3.22-14.2,5.02h0s-.08-.12-.08-.11c.15-.88.88-1.35,1.41-1.96,2.28-2.64,4.68-5.17,5.9-8.56.83-2.31-.19-4.01-2.62-3.97-1.96.03-3.9.25-5.82.7-6.23,1.46-11.85,4.32-17.33,7.51-2.3,1.34-4.55,2.76-6.82,4.14.17-.71.48-1.22.84-1.68,1.92-2.46,3.58-5.05,4.53-8.06.71-2.23.32-4.52-1.09-5.41h0c-.97-.85-1.96-.2-2.84.09-7.97,2.64-14.04,7.87-19.23,14.27,0,0,0,0,0,0-.15.16-.3.32-.44.48-1.47,1.69-2.55,3.57-5.17,4.16-8.13,1.83-15.54,5.44-22.3,10.31-5.57,4.01-10.55,8.65-14.65,14.18-3.24,4.37-5.97,9.04-7.44,14.29-.53,1.88-1.33,3.13-3.08,4.04-2.39,1.24-4.07,3.26-5.08,5.79-.92,2.31-.49,4.67,1.47,6.19,3.54,2.74,7.48,2.96,11.59,1.34,1.6-.63,2.95-1.64,4.34-2.62.79-.56,1.75-.83,2.56-.03.78.76,1.18,1.6.59,2.78-.77,1.53-2.1,2.39-3.51,3.08-5.1,2.51-10.22,2.99-15.3-.14-.37-.23-.82-.73-1.33-.4-.54.35-.17.93-.1,1.37.91,5.89,2.92,11.39,5.88,16.56.32.21.61.45.89.7-.28-.25-.57-.49-.89-.7,0,1.16,1.01,1.76,1.49,2.66,2.22,4.1,5.08,7.75,8.19,11.17,5.2,5.74,11,10.83,17.56,15.02,4.37,2.79,8.86,5.32,13.65,7.3.32.06.63.13.95.19.17.24.34.48.51.71.2,1.07.52,2.11,1.04,3.08,3.12,5.8,7.84,9.74,14.12,11.63,4.04,1.22,8.42-.19,8.78-5.39.06-.92.31-1.81.15-2.76-.14-.81.21-1.09,1.05-.73,1.17.5,2.45.56,3.69.64,5.09.33,10.16.9,15.27.94,1.41,0,2.82-.02,4.23-.03,6.71-.03,13.38-.58,19.96-1.82,6.92-1.29,13.75-2.96,20.33-5.54,6.56-2.57,12.91-5.58,18.76-9.52,5.22-3.51,9.99-7.59,14.15-12.33.67-.76,1.03-.65,1.69-.07.93.82,10.12,8.29,13.43,10.87,3.49,2.71,7.21,5.08,11.43,6.62,3.81,1.39,5.79-.38,6.17-3.61.06-.54.13-1.09.2-1.63.02-1.46.28-2.94-.29-4.36,0-.43.04-.87,0-1.3-.57-4.67-1.73-9.2-3.26-13.65-.23-.68-.43-1.22.22-1.9,2.21-2.34,4.1-4.94,5.8-7.69,3.28-5.31,5.87-10.91,7.52-16.94.3-1.09-.02-1.76-1.28-1.56Z"/>
  <path class="cls-3" d="M81.91,77.11c-1.25,9.31-10.02,16.56-20.38,15.14-10.21-1.4-16.61-10.88-15.1-20.46,1.56-9.91,10.39-17.03,20.49-15.48,10.78,1.65,16.48,11.33,15,20.8ZM57,65.78c-.41,2.87,1.64,5.5,4.59,5.85,2.8.34,5.46-1.72,5.82-4.5.33-2.55-1.73-5.16-4.37-5.56-3.18-.48-5.6,1.21-6.03,4.21Z"/>
  <polygon class="cls-1" points="133.02 51.89 133.02 51.89 133.02 51.89 133.02 51.89 133.02 51.89"/>
  <path class="cls-1" d="M176.73,140.86c-4.46,2.87-9.2,5.17-14.19,6.99-2.24.82-4.48,1.63-6.99,2.27.62.79,1.27,1.02,1.87,1.21,5.46,1.8,10.89,1.55,16.02-.98,3.3-1.62,5.77-4.12,5.52-8.27-.04-.69.14-1.62-.51-1.93-.51-.24-1.18.37-1.73.72Z"/>
  <path class="cls-2" d="M57,65.78c.43-3,2.85-4.69,6.03-4.21,2.65.4,4.7,3.01,4.37,5.56-.36,2.78-3.02,4.84-5.82,4.5-2.94-.36-5-2.98-4.59-5.85Z"/>
</svg>