<?xml version="1.0" encoding="UTF-8"?>
<svg id="Layer_1" data-name="Layer 1" xmlns="http://www.w3.org/2000/svg" viewBox="0 0 1920 387.7">
  <defs>
    <style>
      .cls-1 {
        fill: #242426;
      }

      .cls-1, .cls-2, .cls-3, .cls-4, .cls-5, .cls-6 {
        stroke-width: 0px;
      }

      .cls-2 {
        fill: #f05323;
      }

      .cls-3 {
        fill: #fcb92f;
      }

      .cls-4 {
        fill: #fff;
      }

      .cls-5 {
        fill: #f26b22;
      }

      .cls-6 {
        fill: #b62c25;
      }
    </style>
  </defs>
  <g>
    <path class="cls-6" d="M260.07,55.94c5.92-2.25,11.49-4.45,17.39-5.58,6.47-1.24,12.95-1.83,19.48-.47,5.32,1.11,8.78,5.27,8.91,10.72.03,1.34,0,2.67,0,4.36,8.48-2.8,16.89-2.87,25.27-2.34,5.41.35,10.86,1.37,13.99,6.76,1.28,2.2,2.08,4.72,1.46,7.11-.74,2.84.77,2.44,2.45,2.42,4.09-.04,8.23-.39,12.27.05,12.31,1.34,23.83,4.88,33.08,13.66,9.14,8.68,14.75,19.2,16.56,31.79,2.05,14.31-2.49,26.49-11.75,37.06-2.08,2.38-.86,3.31.34,5.1,1.52,2.26,2.86,1.56,4.58.48,13.5-8.52,27.16-16.75,42.21-22.34,4.49-1.67,9.05-3.21,13.93-3.28,7.79-.11,11.76,3.58,11.54,11.47-.24,8.4-2.28,16.56-4.72,24.57-3.14,10.33-6.97,20.41-12.95,29.48-1.03,1.57-.75,2.69-.05,4.04,5.78,11.18,10.06,22.92,12.23,35.3,1.25,7.12,2.42,14.4-.93,21.45-2.44,5.15-6.61,7.39-12.02,7.68-15.5.84-28.7-5.58-41.37-13.41-4.92-3.04-9.57-6.54-14.22-9.99-1.56-1.15-2.5-1.19-3.49.51-.43.74-.98,1.45-1.61,2.02-2.18,1.96-1.92,3.7-.18,5.97,4.11,5.36,7.06,11.38,7.14,18.27.14,11.82-6.24,20.26-15.17,26.95-13.43,10.05-28.76,12.77-45.12,10.83-1.57-.19-3.2.1-4.74-.68-1.41-.72-1.83-.03-1.95,1.47-1.01,12.84-8.51,19.8-21.56,20.68-14.74.99-28.43-1.73-40.57-10.52-.94-.68-1.7-.72-2.72-.47-10.24,2.51-20.65,3.46-31.17,3.5-1.33,0-2.79-.58-3.17,1.84-1.83,11.69-12.14,15.51-22.09,15.04-9.78-.46-18.84-3.36-26.62-9.56-1.04-.83-1.94-1.42-3.2-.28-7.98,7.16-21.41,2.33-27.46-4.64-3.6-4.15-6.22-8.88-7.45-14.25-.33-1.45-.99-1.96-2.28-2.46-24.81-9.66-46.16-24.3-63.62-44.47-14.81-17.11-25.02-36.48-27.79-59.15-1.42-11.6.66-22.52,10.28-30.6,1.66-1.39,2.32-3.13,2.77-5,6.38-26.63,20.43-48.56,40.56-66.86,12.99-11.81,27.5-21.09,44.03-27.12,2.05-.75,3.39-2.03,4.66-3.86,11.13-16.04,24.7-29.2,43.79-35.34,8.74-2.81,12.98-.4,15.37,8.29.67,2.44,1.71,1.32,2.82.69,6.84-3.87,13.76-7.54,21.52-9.23,2.4-.52,4.85-.99,7.3-1.11,10.03-.5,13.72,2.96,14.06,13.45ZM171.8,71.48l.05-.07c-.25.26-.51.52-.76.78-2.01,1.31-2.95,3.53-4.46,5.26-3.5,4.42-6.57,9.06-7.52,14.77-23.97,7-42.65,21.61-57.81,40.94-11.52,14.68-19.47,31.16-22.83,49.68-.27,1.5-.41,2.99-2.23,3.92-6.92,3.55-10.11,9.74-10.64,17.15-.47,6.5,1.69,10.73,8.18,12.17,7.99,1.77,14.61-.73,20.31-6.24,1.99-1.92,4.27-3.85,6.69-1.53,2.5,2.4.92,5.08-1.14,7.14-3.48,3.49-7.72,5.7-12.43,7.09-4.93,1.46-9.82.64-14.68-.29-2.29-.44-3.62-.73-2.79,2.54,2.82,11.09,8.37,20.76,14.97,29.93.34.64.6,1.35,1.04,1.92,6.59,8.58,14.21,16.12,22.73,22.8,17.41,13.67,36.58,23.89,57.8,30.36,4.55,1.39,9.41,1.88,13.62,4.36,4.75,11.05,13.23,17.87,24.49,21.5,2.13.69,4.34.85,6.58.86,9.67.02,13.94-6.45,10.8-16.44.96-1.17,2.3-.68,3.48-.72,6.55-.22,13.09-.1,19.66-.61,14.76-1.16,29.1-4.22,43.06-8.85,21.88-7.26,42.14-17.86,60.81-31.41,8.82-6.41,16.94-13.62,24.47-21.52,7.19-7.54,13.49-15.76,19.42-24.65,5.24,5.57,10.86,10.35,17.3,14.11,5.97,5.72,13.19,9.6,20.45,13.3,5.15,2.63,10.64,4.8,16.53,5.22,5.37.38,7.51-1.68,7.79-7.04.19-3.58-.36-7.12-.64-10.68-.63-7.9-3.12-15.19-6.13-22.39-1.38-4.13-2.72-8.27-4.99-12.02-2.73-4.09-.6-7.59,1.35-11.11,2.21-3.46,4.29-6.98,5.26-11.03,6.54-12.27,9.02-25.68,10.97-39.23.27-1.9-1.18-2.01-2.44-1.69-3.45.86-7,1.44-10.11,3.35-11.28,4.59-21.71,10.75-31.85,17.43-7.66,4.72-15.34,9.4-22.95,14.2-1.28.81-1.85,1.35-2.59-.56-3.57-9.24-8.35-17.88-13.41-26.37.98-1.27,2.86-.16,3.84-1.43,8.01-1.69,16.83-11.94,17.92-20.84.89-.88.58-1.99.55-3.04.27-4.47.46-8.94-.76-13.32.06-.62,0-1.2-.57-1.6-.81-4.61-2.86-8.68-5.4-12.54-1.03-1.63-1.99-3.32-3.53-4.55-1.86-2.4-3.72-4.81-6.68-5.98h-.01c0-1.02-.64-1.38-1.51-1.5l.03.02c-.32-.61-.88-.75-1.51-.77h.02c-.64-1.21-1.74-1.5-3-1.48h0c-1.49-1.64-3.61-2.02-5.57-2.65-6.55-2.1-13.32-2.15-20.09-1.88-6.71.27-13.35,1.12-19.81,3.05,0,0,.01-.02.01-.02-.49.04-.97.08-1.46.11-3.04.87-6.08,1.74-9.12,2.61,2.38-3.34,5.51-5.93,8.19-8.91,2.68-2.98,5.91-5.67,6.97-9.83,1.1-3.76-2.32-2.93-3.76-3.21-12.73-2.45-24.73.72-36.51,5.21-5.05,1.48-9.4,4.63-15,6.69,5.68-6.98,11.62-12.81,14.15-20.93,1.32-3.05.04-4.02-2.98-4.56-6.8-1.23-13.29.07-19.58,2.24-8.25,2.84-16.33,6.16-23.54,11.25h.02c-1.04.05-1.81.52-2.24,1.49h0c-.25-.03-.49,0-.72.09-1.97.91-3.4,2.79-5.67,3.15-.16-.13-.31-.26-.46-.39.94-1.43,1.91-2.84,2.81-4.3,3.08-5.03,6.39-9.96,7.51-15.91.34-1.8.98-3.84-1.95-4.16-13.93-.4-24.82,6.38-35.02,14.81h0c-.25-.03-.49,0-.72.08-4.8,3.78-9.56,7.61-13.85,12.04-.62-1.07.23-1.71.49-2.48,2.13-6.25,6-11.93,5.94-18.89-.04-5.46-.65-5.94-6.03-4.17-10.75,3.7-18.68,11.18-26.05,19.4l.07-.04-.8.81ZM329.93,302.87c7.39,3.77,15.09,4.39,22.91,3.84,11.89-.84,22.06-5.53,29.74-14.76,6.5-7.81,6.43-16.74.4-24.45-1.27-1.63-2.16-1.88-3.78-.3-8.37,8.13-17.7,15.07-27.41,21.5-7.18,4.75-14.44,9.37-21.86,14.17ZM306.64,328.29c2.44-.29,4.98-.26,7.31-.94,3.66-1.06,6.7-3.04,7.88-7.1.97-3.36-.61-5.71-2.64-7.99-1.93-2.16-3.92-1.51-6.34-.63-7.64,2.79-15.41,5.24-23.13,7.84-1.03.35-2.55.47-2.73,1.61-.21,1.34,1.26,2,2.27,2.62,5.32,3.25,11.34,3.95,17.38,4.59Z"/>
    <path class="cls-5" d="M377.21,157.82c5.06,8.49,9.83,17.13,13.41,26.37.74,1.92,1.31,1.37,2.59.56,7.61-4.8,15.29-9.48,22.95-14.2,5.68,2.15,11.3,1.79,16.88-.37,6.07-2.35,11.09-6.38,16.12-10.35.98-.77,2.77-1.63,2.16-3.08-.51-1.21-2.28-1.23-3.68-1.16-.36.02-.73-.06-1.33-.12.53-.91,1.73-1.26,1.71-2.36,3.11-1.91,6.66-2.49,10.11-3.35,1.25-.31,2.71-.2,2.44,1.69-1.95,13.55-4.43,26.96-10.97,39.23-.69-2.85-2.48-.87-3.44-.54-7.71,2.63-15.57,4.68-23.52,6.41-5.54,1.2-10.93,3.07-16.69,3.66,2.99,1.56,6.05,2.27,9.25,2.27,9.72,0,19.45.33,29.14-.76-1.95,3.52-4.08,7.02-1.35,11.11-4.42,1.65-8.96.91-13.42.44-6.37-.69-12.8.12-19.14-1.06-1.1-.2-2.48.16-2.86,1.25-.51,1.48,1.11,1.67,2,2.15,1.3.7,2.68,1.24,4.04,1.82,10.03,4.25,20.91,5.48,31.22,8.73,1.49.47,2.3-.37,3.14-1.3,3.01,7.2,5.5,14.49,6.13,22.39.28,3.56.83,7.1.64,10.68-.28,5.37-2.42,7.42-7.79,7.04-5.89-.41-11.38-2.59-16.53-5.22-7.25-3.7-14.47-7.58-20.45-13.3,2.79-.6.92-2.08.39-2.94-1.3-2.09-2.93-3.97-4.25-6.06-.76-1.2-2.35-2.79-1.44-3.89,1.13-1.37,2.68.35,3.9.97,12.71,6.41,25.69,12.21,39.01,17.2,5.87,2.2,5.9,1.93,5.71-4.1-.08-2.47-.78-4.05-3.52-4.24-.95-.07-1.89-.52-2.8-.86-8.56-3.19-17.07-6.5-25.3-10.47-9.44-4.56-19.54-7.94-27.56-15.06-1.46-1.3-2.11-.53-3,.38-3.71,3.81-7.32,7.72-10.98,11.56-11.61,12.19-24.07,23.39-38.43,32.4-11.66,7.32-23.63,13.99-36.31,19.25-12.66,5.25-25.68,9.57-39.02,12.86-11.5,2.84-23.13,4.96-34.92,5.7-8.95.57-17.9,1.16-26.98.31-10.57-.98-21.05-2.3-31.39-4.49-11.23-2.38-22.17-5.88-32.89-10.04-11.1-4.31-21.74-9.5-32.03-15.47-7.61-4.42-14.42-9.94-21.59-14.97-.7-.49-1.51-1.92-1.83.26-6.6-9.17-12.15-18.84-14.97-29.93-.83-3.27.5-2.97,2.79-2.54,4.86.92,9.75,1.74,14.68.29,4.71-1.39,8.95-3.6,12.43-7.09,2.05-2.06,3.64-4.74,1.14-7.14-2.42-2.32-4.7-.39-6.69,1.53-5.69,5.51-12.32,8.01-20.31,6.24-6.48-1.44-8.64-5.67-8.18-12.17.53-7.41,3.72-13.61,10.64-17.15,1.82-.94,1.96-2.42,2.23-3.92,3.36-18.52,11.31-35,22.83-49.68,15.16-19.32,33.84-33.93,57.82-40.94,11.23-2.79,22.6-4.68,34.11-6.12,9.54-1.19,19.08-2.14,28.65-2.63,10.72-.56,21.45.16,32.16,1.3,13.79,1.47,27.22,4.64,40.38,8.67,16.76,5.14,31.97,13.43,45.81,24.4,10.62,8.41,20.4,17.55,28.68,28.24,2.93,3.79,5.56,7.81,8.33,11.72ZM214.99,212.92c.26-.27.52-.53.78-.8l-.04.03c1.94.1,4,.68,5.8.22,11.68-2.99,23.73-4.66,34.72-10.09,5.25-2.59,10.26-6.13,16.6-5.55,6.05.3,7.01,1.16,6.06,6.6-.71,4.06-1.47,8.19-3.52,11.89.07-1.41.15-2.82.22-4.27-4.61.65-8.92,1.63-13.3,2.32-12.54,1.99-25.13,3.32-37.78,4.08-3.2.19-6.32,1.15-9.58.84-1.21-.12-2.34.7-2.49,1.83-.2,1.54,1.38,1.02,2.19,1.27,3.76,1.16,7.63.45,11.45.53,12.61.28,25.23.19,37.74-1.58,3.64-.52,7.75.08,10.83-2.83-1.53,5.85-4.61,10.88-8.3,15.58-1-.54-2.06-.76-3.21-.74-16.51.36-32.44-3.85-48.59-6.24-1.03-.15-2.47-1.08-2.8.34-.31,1.33,1.2,1.85,2.46,2.2,4.63,1.27,9.23,2.68,13.87,3.92,8.92,2.38,17.9,4.33,27.15,5.13,2.21.19,4.6-.87,6.69.59-4.72,4.63-9.67,8.9-16.35,10.48,2.09-1.93.58-2.43-1.13-3.04-7.8-2.77-15.44-5.88-22.84-9.63-2.89-1.46-5.92-2.88-9.89-3.34,4.28,6.41,10.64,8.99,16.43,12.3,5.4,3.08,10.96,5.69,17.46,3.71-6.45,3.32-12.94,2.34-19.35-.03-7.52-2.78-13.87-7.58-20.3-12.22-1.03-.74-2.37-2.18-3.56-1.16-1.1.94.33,2.27.86,3.27,12.15,22.86,41.44,29.21,61.75,13.38,13.72-10.69,21-25.11,23.53-42,.7-4.68,1.04-9.7-1.78-14.11-3.42-5.34-8.94-6.21-14.57-6.71-12.73-1.13-24.54,2.47-36,7.38-10.83,4.65-20.91,10.54-29.26,19.63.93-.11,1.51-.18,2.08-.25,1.02-.08,1.83-.5,2.3-1.46h0c.58-.11,1.22-.12,1.5-.79l-.05.04c.81-.13,1.73.07,2.29-.78,0,0-.05.04-.05.04ZM224.73,98.21c.28.67.86.78,1.48.8h0c2.05,2.2,5.57,2.15,7.42-.1.64-.72,1.28-1.44,1.91-2.16,1.52-.92,1.49-1.9.11-2.92-.68-.91-1.36-1.83-2.04-2.74-2.22-2.5-5.18-2.5-7.37.01-.27.16-.54.31-.81.47-.98.05-1.47.56-1.44,1.55l.03-.04c-2.98,2.19-1.47,3.74.75,5.18l-.05-.04ZM180.82,189.35c.83-18.3-14.41-33.86-31.01-33.77-17.13.09-31.79,14.69-31.72,33.45.07,18.11,14.75,32.32,31.07,32.29,17.65-.03,32.43-15.08,31.66-31.97ZM413.65,187.07c4.57-.58,9.13-.12,13.57-1.28,7.43-1.93,14.49-4.76,21.51-7.78,2.89-1.24,6.48-1.37,6.75-5.65.06-.95,1.24-1.92.38-2.75-.96-.93-2.11.07-3.05.42-5.54,2.08-11.11,4.09-16.5,6.5-7.59,3.39-14.91,7.38-22.67,10.53ZM248.91,103.45c-4.31.03-7.14,2.38-7.03,5.85.12,3.8,3.59,6.86,7.75,6.83,3.92-.03,7.16-2.92,7.18-6.41.02-3.92-2.98-6.31-7.91-6.28ZM217.26,102.65c-.04-3.64-2.63-5.9-6.68-5.83-3.43.06-7.37,3.57-7.42,6.61-.05,3.08,3.31,6.05,6.82,6.02,4.2-.04,7.32-2.95,7.28-6.79ZM298.22,111.56c-3.67-.17-5.79,1.48-5.89,4.59-.11,3.23,2.34,5.76,5.78,5.97,3.16.19,5.97-1.99,6.09-4.73.14-3.15-2.45-5.66-5.98-5.82ZM284.05,142.23c3.46.02,6.03-2.18,6.04-5.15,0-2.79-2.16-4.59-5.57-4.64-3.94-.06-6.14,1.67-6.15,4.82,0,3.05,2.17,4.95,5.67,4.97ZM228.42,113.13c-3.89-.01-6.03,1.77-5.97,4.98.05,3.04,2.14,4.77,5.8,4.82,3.19.04,5.87-2.14,5.98-4.85.1-2.68-2.55-4.94-5.81-4.95ZM321.91,128.07c1.65,0,3.55-1.31,3.86-4.27.27-2.58-2.59-5.14-5.68-5.27-2.48-.11-5.12,2.13-5.17,4.38-.06,2.76,2.58,5.13,6.98,5.16ZM190.48,116.25c2.89.14,4.63-1.39,4.98-4.22.3-2.47-1.93-4.22-4.91-4.17-3.26.06-5.47,1.82-5.26,4.37.26,3.07,2.24,4.16,5.19,4.02ZM262.57,128.14c2.92.11,4.8-1.02,4.98-3.92.18-2.89-1.82-4.42-5.13-4.47-3.21-.05-4.67,1.82-4.59,4.59.08,2.81,2.1,4.03,4.74,3.81ZM309.66,144.53c2.37.2,4.05-.95,4.31-3.65.24-2.4-2.17-4.62-4.79-4.55-2.82.07-4.44,1.76-4.55,4.38-.13,3.07,2.12,3.83,5.04,3.82ZM271.98,98.44c-2.26.54-4.84.73-4.81,3.75.03,3.19,2.42,4.14,5.08,4.18,2.29.04,4.58-.42,4.65-3.52.07-3.44-2.71-3.64-4.92-4.42ZM326.54,149.63c2.44-.07,4.34-1.03,4.63-3.72.3-2.75-1.33-4.11-3.91-4.39-2.56-.28-4.52.73-4.92,3.36-.45,2.96,1.61,4.13,4.2,4.74ZM346.11,137.44c.02-2.91-1.42-4.22-4.11-4.28-2.4-.05-4.73.34-4.76,3.33-.03,2.79,1.83,4.16,4.56,4.27,2.43.1,4.06-.84,4.31-3.33ZM281.84,126.6c2.45-.24,4.57-1.12,4.57-3.84,0-2.61-2.23-3.51-4.39-3.51-2.18,0-4.33.96-4.35,3.55-.02,2.51,1.9,3.49,4.17,3.8ZM290.57,96.68c-1.67.32-4.15-.05-3.91,2.63.23,2.58,2.28,3.52,4.81,3.47,1.88-.04,3.73-.4,3.71-2.59-.03-2.77-1.95-3.73-4.61-3.51ZM261.01,94.65c1.93-.05,3.96-.11,3.84-2.81-.11-2.54-1.85-3.28-4.1-3.23-1.91.04-4.01.06-4.05,2.67-.05,2.81,1.96,3.4,4.31,3.37Z"/>
    <path class="cls-2" d="M84.71,254.75c.32-2.18,1.13-.75,1.83-.26,7.17,5.03,13.99,10.55,21.59,14.97,10.29,5.97,20.93,11.16,32.03,15.47,10.73,4.16,21.66,7.67,32.89,10.04,10.34,2.19,20.83,3.51,31.39,4.49,9.08.84,18.03.26,26.98-.31,11.79-.75,23.43-2.87,34.92-5.7,13.34-3.29,26.36-7.61,39.02-12.86,12.68-5.26,24.66-11.94,36.31-19.25,14.36-9.01,26.83-20.21,38.43-32.4,3.66-3.85,7.28-7.75,10.98-11.56.89-.91,1.53-1.68,3-.38,8.02,7.12,18.12,10.5,27.56,15.06,8.23,3.98,16.74,7.28,25.3,10.47.92.34,1.85.79,2.8.86,2.73.2,3.44,1.78,3.52,4.24.19,6.04.16,6.3-5.71,4.1-13.32-4.99-26.3-10.79-39.01-17.2-1.22-.62-2.77-2.34-3.9-.97-.91,1.1.68,2.69,1.44,3.89,1.32,2.08,2.96,3.96,4.25,6.06.53.86,2.4,2.33-.39,2.94-6.44-3.76-12.05-8.54-17.3-14.11-5.94,8.89-12.23,17.11-19.42,24.65-7.54,7.9-15.65,15.11-24.47,21.52-18.67,13.56-38.93,24.16-60.81,31.41-13.96,4.63-28.3,7.69-43.06,8.85-6.57.52-13.11.39-19.66.61-1.18.04-2.52-.46-3.48.72-14.27.26-28.08-2.74-41.87-5.92-4.2-2.48-9.07-2.98-13.62-4.36-21.21-6.47-40.38-16.69-57.8-30.36-8.51-6.68-16.14-14.22-22.73-22.8-.44-.57-.7-1.27-1.04-1.92Z"/>
    <path class="cls-2" d="M377.21,157.82c-2.77-3.91-5.4-7.93-8.33-11.72-8.28-10.7-18.07-19.83-28.68-28.24-13.84-10.96-29.05-19.26-45.81-24.4-13.16-4.03-26.59-7.2-40.38-8.67-10.71-1.14-21.44-1.86-32.16-1.3-9.56.5-19.11,1.44-28.65,2.63-11.5,1.44-22.87,3.33-34.11,6.12.95-5.72,4.02-10.36,7.52-14.77,4.2.27,8.04-.54,11.14-3.64,9.12-3.67,15.69-10.54,21.97-17.71,1.43-1.63,2.18-3.91-1.14-4.8,5.38-1.76,5.98-1.28,6.03,4.17.06,6.96-3.81,12.64-5.94,18.89-.26.77-1.11,1.41-.49,2.48,4.29-4.43,9.05-8.26,13.85-12.04.3.52.54.49.72-.08,0,0,0,0,0,0,.6.13,1.5.05,1.74.41,2.48,3.68,6.11,3.26,9.6,2.53,4.92-1.02,8.89-4.18,13.2-6.57,3.09-1.71,5.39-4.32,7.89-6.71,1.34-1.28.03-3.99,2.59-4.49,2.93.32,2.29,2.36,1.95,4.16-1.12,5.95-4.44,10.87-7.51,15.91-.89,1.46-1.87,2.87-2.8,4.31-.38.4-1.29.84-.75,1.31.58.5.93-.41,1.21-.92,2.27-.36,3.7-2.24,5.67-3.15.32.52.55.46.72-.1,0,0,0,0,0,0,1.13.08,1.88-.42,2.24-1.5,0,0-.02.01-.02.01,2.12.4,3.27-1.52,5-2.05.74-.23,1.63-1.26,2.27-.16,2.41,4.15,6.3,3.35,9.75,2.59,10.02-2.23,19.65-5.57,28.09-11.67.55.76.06,1.86.98,2.37-2.53,8.12-8.47,13.95-14.15,20.93,5.6-2.06,9.95-5.21,15-6.69.42.55,1.01.83,1.61.52,2.4-1.23,4.33-.75,6.67.67,1.88,1.13,3.99,2.35,6.46,2.5,8.27.49,15.9-1.22,22.49-6.42,1.56-1.23,2.35-.9,3.03.73-1.05,4.17-4.28,6.86-6.97,9.83-2.69,2.98-5.81,5.57-8.19,8.91,3.04-.87,6.08-1.74,9.12-2.61.55.75,1.03.73,1.46-.11,0,0-.01.02-.01.02,4.13,1.13,8.02-1.09,12.81,1.11,8.65,3.96,18.47,4.7,27.99,1.34,1.5-.53,3.03-1.08,4.67-.96,0,0,0,0,0,0,.52,1.46,1.69,1.62,3,1.49,0,0-.02-.01-.02-.01.3.66.87.79,1.51.77,0,0-.03-.02-.03-.02.24.77.74,1.27,1.51,1.5,0,0,.01,0,.01,0-.35,2-2.25,2.7-3.58,2.7-4.66.03-8.5,2.39-12.63,3.89-7.52,2.74-15.07,5.41-22.85,7.35-.93.23-2.16.29-2.37,1.45-.24,1.32.93,1.9,1.87,2.46,1.59.94,3.36,1.53,4.75,2.83,2.03,1.9,4.17,1.79,6.82.84,11.98-4.27,23.05-10.52,34.67-15.55,1.54,1.23,2.51,2.92,3.53,4.55-1.29,2.24-3.85,1.94-5.78,2.89-10.29,5-20.64,9.84-31.31,13,1.4,1.65,2.84,3.29,4.21,4.99,3,3.75,5.4,3.63,9.87,1.67,7.79-3.42,15.21-7.62,23.05-10.97,2.59-1.11,3.82-.73,5.36.98.58.39.63.97.57,1.59-.67,1.52-1.76,2.38-3.38,3.01-8.49,3.29-16.9,6.76-25.34,10.17-.82.33-2.6.43-1.75,1.63,1.92,2.68,4.04,5.39,6.64,7.35,1.66,1.25,3.91-.59,5.81-1.29,6.33-2.33,12.11-6.06,18.78-7.55.03,1.05.34,2.15-.55,3.04-7.5,2.09-14.11,6.18-21.56,9.07,1.5,1.88,2.62,3.5,3.94,4.92,3.63,3.88,3.67,3.85-.3,6.85-.99,1.27-2.86.15-3.84,1.43Z"/>
    <path class="cls-2" d="M329.93,302.87c7.41-4.8,14.68-9.41,21.86-14.17,9.71-6.43,19.04-13.37,27.41-21.5,1.63-1.58,2.51-1.33,3.78.3,6.03,7.71,6.1,16.64-.4,24.45-7.68,9.23-17.85,13.92-29.74,14.76-7.82.55-15.52-.07-22.91-3.84Z"/>
    <path class="cls-5" d="M179.89,314.19c13.79,3.18,27.6,6.18,41.87,5.92,3.14,9.99-1.13,16.47-10.8,16.44-2.24,0-4.45-.17-6.58-.86-11.26-3.63-19.74-10.45-24.49-21.5Z"/>
    <path class="cls-5" d="M398.2,117.6c-1.54-1.71-2.77-2.08-5.36-.98-7.85,3.35-15.26,7.55-23.05,10.97-4.47,1.96-6.86,2.08-9.87-1.67-1.36-1.7-2.81-3.33-4.21-4.99,10.66-3.15,21.02-8,31.31-13,1.94-.94,4.5-.65,5.78-2.89,2.54,3.86,4.59,7.94,5.4,12.54Z"/>
    <path class="cls-5" d="M389.27,100.5c-11.62,5.03-22.69,11.28-34.67,15.55-2.64.94-4.79,1.05-6.82-.84-1.4-1.31-3.17-1.9-4.75-2.83-.95-.56-2.11-1.14-1.87-2.46.21-1.16,1.45-1.22,2.37-1.45,7.78-1.93,15.32-4.61,22.85-7.35,4.13-1.5,7.96-3.87,12.63-3.89,1.33,0,3.22-.7,3.58-2.7,2.97,1.17,4.82,3.58,6.68,5.98Z"/>
    <path class="cls-2" d="M306.64,328.29c-6.04-.64-12.05-1.34-17.38-4.59-1.01-.62-2.48-1.28-2.27-2.62.18-1.13,1.69-1.26,2.73-1.61,7.72-2.6,15.49-5.05,23.13-7.84,2.42-.88,4.41-1.53,6.34.63,2.03,2.28,3.62,4.63,2.64,7.99-1.18,4.06-4.22,6.04-7.88,7.1-2.33.68-4.87.65-7.31.94Z"/>
    <path class="cls-5" d="M399.53,132.51c-6.67,1.5-12.44,5.22-18.78,7.55-1.9.7-4.15,2.54-5.81,1.29-2.6-1.96-4.72-4.67-6.64-7.35-.86-1.2.93-1.3,1.75-1.63,8.44-3.41,16.86-6.89,25.34-10.17,1.63-.63,2.71-1.49,3.38-3.01,1.22,4.39,1.03,8.85.76,13.32Z"/>
    <path class="cls-2" d="M447.96,224.86c-.84.92-1.65,1.77-3.14,1.3-10.31-3.25-21.19-4.48-31.22-8.73-1.36-.58-2.75-1.12-4.04-1.82-.89-.48-2.51-.68-2-2.15.38-1.08,1.76-1.45,2.86-1.25,6.34,1.18,12.77.38,19.14,1.06,4.46.48,9,1.22,13.42-.44,2.27,3.76,3.61,7.9,4.99,12.02Z"/>
    <path class="cls-5" d="M294.59,61.03c-.93-.51-.43-1.61-.98-2.37-8.44,6.1-18.07,9.44-28.09,11.67-3.45.77-7.34,1.57-9.75-2.59-.64-1.1-1.53-.07-2.27.16-1.73.53-2.88,2.46-5,2.05,7.2-5.09,15.29-8.41,23.54-11.25,6.28-2.16,12.77-3.46,19.58-2.24,3.03.55,4.31,1.51,2.98,4.56Z"/>
    <path class="cls-5" d="M247.79,49.92c-2.56.5-1.25,3.21-2.59,4.49-2.51,2.39-4.8,5-7.89,6.71-4.31,2.38-8.27,5.54-13.2,6.57-3.49.72-7.12,1.15-9.6-2.53-.24-.36-1.15-.29-1.74-.41,10.19-8.44,21.09-15.21,35.02-14.81Z"/>
    <path class="cls-2" d="M444.32,201.73c-9.69,1.09-19.42.75-29.14.76-3.2,0-6.26-.7-9.25-2.27,5.76-.59,11.15-2.46,16.69-3.66,7.95-1.72,15.81-3.78,23.52-6.41.97-.33,2.75-2.31,3.44.54-.97,4.05-3.06,7.57-5.26,11.03Z"/>
    <path class="cls-3" d="M448.01,153.12c.02,1.1-1.17,1.44-1.71,2.36.6.06.97.14,1.33.12,1.4-.08,3.17-.05,3.68,1.16.61,1.45-1.18,2.31-2.16,3.08-3.02,2.38-6.03,4.78-9.26,6.83-2.16,1.37-4.42,2.58-6.86,3.52-5.58,2.16-11.2,2.53-16.88.37,10.14-6.68,20.57-12.84,31.85-17.43Z"/>
    <path class="cls-3" d="M198.59,51.31c3.32.9,2.57,3.17,1.14,4.8-6.28,7.16-12.85,14.04-21.97,17.7.04-4.03-3.04-2.82-5.23-3.11,7.37-8.23,15.31-15.7,26.05-19.4Z"/>
    <path class="cls-5" d="M335.72,73.27c-.68-1.63-1.47-1.96-3.03-.73-6.6,5.2-14.22,6.91-22.49,6.42-2.48-.15-4.59-1.36-6.46-2.5-2.35-1.42-4.27-1.89-6.67-.67-.6.3-1.2.03-1.61-.52,11.78-4.49,23.78-7.65,36.51-5.21,1.44.28,4.86-.55,3.76,3.21Z"/>
    <path class="cls-5" d="M381.06,156.39c3.96-3,3.93-2.97.3-6.85-1.33-1.42-2.45-3.04-3.94-4.92,7.45-2.89,14.06-6.99,21.56-9.07-1.09,8.91-9.9,19.16-17.92,20.84Z"/>
    <path class="cls-5" d="M376.6,90.79c-1.65-.11-3.17.43-4.67.96-9.52,3.36-19.34,2.62-27.99-1.34-4.79-2.19-8.68.02-12.81-1.11,6.46-1.93,13.1-2.78,19.81-3.05,6.77-.28,13.54-.22,20.09,1.88,1.96.63,4.08,1,5.57,2.65Z"/>
    <path class="cls-5" d="M172.54,70.71c2.19.29,5.27-.93,5.23,3.11-3.09,3.11-6.94,3.91-11.14,3.64,1.51-1.73,2.45-3.95,4.46-5.26,1.15.62.6-.43.76-.78,0,0-.05.07-.05.07.27-.27.54-.54.8-.81l-.07.04Z"/>
    <path class="cls-5" d="M379.6,92.28c-1.31.12-2.48-.04-3-1.49,1.25-.01,2.36.27,3,1.49Z"/>
    <path class="cls-5" d="M248.51,69.94c-.36,1.07-1.11,1.58-2.24,1.5.44-.96,1.2-1.44,2.24-1.5Z"/>
    <path class="cls-5" d="M382.57,94.52c-.77-.23-1.28-.73-1.51-1.5.88.12,1.52.49,1.51,1.5Z"/>
    <path class="cls-5" d="M331.14,89.28c-.42.84-.91.87-1.46.11.49-.04.97-.07,1.46-.11Z"/>
    <path class="cls-5" d="M381.08,93.04c-.64.02-1.21-.11-1.51-.77.63.02,1.19.16,1.51.77Z"/>
    <path class="cls-3" d="M171.85,71.42c-.16.35.39,1.4-.76.78.25-.26.51-.52.76-.78Z"/>
    <path class="cls-5" d="M246.27,71.43c-.17.55-.41.62-.72.1.23-.09.47-.12.72-.1Z"/>
    <path class="cls-3" d="M172.61,70.68c-.27.27-.54.54-.8.81.27-.27.54-.54.8-.81Z"/>
    <path class="cls-5" d="M212.77,64.74c-.18.57-.42.6-.72.08.23-.09.48-.11.72-.08Z"/>
    <path class="cls-1" d="M180.82,189.35c.78,16.9-14.01,31.95-31.66,31.97-16.32.03-31-14.18-31.07-32.29-.07-18.76,14.59-33.36,31.72-33.45,16.6-.09,31.84,15.47,31.01,33.77ZM142.16,183.9c5.41-.02,9.64-4.01,9.58-9.06-.06-4.63-4.26-8.57-9.27-8.68-5-.11-9.54,4.36-9.45,9.31.09,5.03,3.81,8.45,9.14,8.43Z"/>
    <path class="cls-6" d="M245.59,248.69c6.67-1.58,11.63-5.85,16.35-10.48,2.03-1.26,3-3.43,4.43-5.21,3.68-4.71,6.76-9.73,8.3-15.58h-.03c.84-.56.69-1.44.76-2.26v.05c2.06-3.7,2.82-7.83,3.53-11.89.95-5.44-.01-6.3-6.06-6.6-20.7-1.01-39.12,6.46-57.13,15.43,0,0,.04-.03.04-.03-.26.27-.52.53-.78.8,0,0,.05-.04.05-.04-.88-.08-1.68.08-2.29.78,0,0,.05-.04.05-.04-.5.27-1,.53-1.5.8,0,0,0,0,0,0-.77.49-1.53.97-2.3,1.46-.57.07-1.15.14-2.08.25,8.35-9.09,18.43-14.99,29.26-19.63,11.46-4.92,23.27-8.51,36-7.38,5.64.5,11.15,1.38,14.57,6.71,2.83,4.41,2.48,9.43,1.78,14.11-2.53,16.89-9.81,31.32-23.53,42-20.31,15.82-49.6,9.48-61.75-13.38-.53-1-1.96-2.32-.86-3.27,1.19-1.02,2.53.43,3.56,1.16,6.44,4.63,12.78,9.43,20.3,12.22,6.4,2.37,12.89,3.35,19.35.03h-.03Z"/>
    <path class="cls-2" d="M274.66,217.42c-3.08,2.91-7.19,2.31-10.83,2.83-12.51,1.77-25.13,1.86-37.74,1.58-3.82-.09-7.69.63-11.45-.53-.81-.25-2.39.28-2.19-1.27.15-1.13,1.29-1.95,2.49-1.83,3.26.31,6.38-.65,9.58-.84,12.66-.76,25.25-2.1,37.78-4.08,4.37-.69,8.69-1.67,13.3-2.32-.08,1.45-.15,2.86-.22,4.27,0,0,0-.05,0-.05-.97.51-.77,1.42-.76,2.26h.03Z"/>
    <path class="cls-3" d="M215.73,212.15c18.01-8.96,36.42-16.44,57.13-15.43-6.34-.58-11.36,2.96-16.6,5.55-10.99,5.44-23.05,7.1-34.72,10.09-1.8.46-3.86-.12-5.8-.22Z"/>
    <path class="cls-2" d="M266.36,233c-1.43,1.78-2.39,3.95-4.43,5.21-2.09-1.46-4.48-.4-6.69-.59-9.24-.8-18.23-2.76-27.15-5.13-4.64-1.24-9.24-2.65-13.87-3.92-1.26-.35-2.76-.87-2.46-2.2.33-1.42,1.76-.49,2.8-.34,16.16,2.39,32.09,6.6,48.59,6.24,1.15-.03,2.21.19,3.21.74Z"/>
    <path class="cls-2" d="M413.65,187.07c7.75-3.16,15.07-7.15,22.67-10.53,5.4-2.41,10.97-4.42,16.5-6.5.94-.35,2.09-1.35,3.05-.42.85.83-.32,1.81-.38,2.75-.27,4.27-3.86,4.4-6.75,5.65-7.02,3.02-14.08,5.85-21.51,7.78-4.45,1.16-9.01.7-13.57,1.28Z"/>
    <path class="cls-2" d="M245.62,248.68c-6.5,1.98-12.06-.63-17.46-3.71-5.79-3.3-12.16-5.88-16.43-12.3,3.97.46,7.01,1.88,9.89,3.34,7.4,3.75,15.05,6.86,22.84,9.63,1.7.61,3.21,1.1,1.13,3.04,0,0,.03,0,.03,0Z"/>
    <path class="cls-3" d="M248.91,103.45c4.93-.03,7.93,2.35,7.91,6.28-.02,3.49-3.26,6.38-7.18,6.41-4.16.03-7.63-3.03-7.75-6.83-.11-3.47,2.72-5.82,7.03-5.85Z"/>
    <path class="cls-3" d="M217.26,102.65c.04,3.84-3.09,6.76-7.28,6.79-3.5.03-6.86-2.94-6.82-6.02.05-3.03,3.99-6.54,7.42-6.61,4.06-.07,6.65,2.19,6.68,5.83Z"/>
    <path class="cls-3" d="M298.22,111.56c3.53.16,6.12,2.68,5.98,5.82-.12,2.73-2.93,4.92-6.09,4.73-3.44-.21-5.89-2.73-5.78-5.97.11-3.11,2.22-4.75,5.89-4.59Z"/>
    <path class="cls-3" d="M284.05,142.23c-3.51-.02-5.68-1.92-5.67-4.97,0-3.16,2.2-4.88,6.15-4.82,3.41.05,5.57,1.86,5.57,4.64,0,2.97-2.58,5.17-6.04,5.15Z"/>
    <path class="cls-3" d="M228.42,113.13c3.26,0,5.91,2.27,5.81,4.95-.11,2.71-2.79,4.89-5.98,4.85-3.66-.05-5.75-1.78-5.8-4.82-.06-3.21,2.08-4.99,5.97-4.98Z"/>
    <path class="cls-3" d="M233.61,91.09c.68.91,1.36,1.83,2.04,2.74.23.98.26,1.96-.11,2.92-.64.72-1.28,1.44-1.91,2.16-2.46,1.18-4.93,1.13-7.42.09,0,0,0,0,0,0-.49-.27-.99-.54-1.48-.8,0,0,.05.04.05.04-.7-1.66-1.18-3.36-.75-5.18,0,0-.03.04-.03.04.48-.52.96-1.03,1.44-1.55.27-.16.54-.31.81-.47,2.46-1.13,4.91-1.07,7.37-.01Z"/>
    <path class="cls-3" d="M321.91,128.07c-4.4-.04-7.04-2.4-6.98-5.16.05-2.26,2.69-4.49,5.17-4.38,3.09.14,5.95,2.7,5.68,5.27-.32,2.96-2.21,4.27-3.86,4.27Z"/>
    <path class="cls-3" d="M190.48,116.25c-2.95.14-4.92-.96-5.19-4.02-.22-2.55,1.99-4.31,5.26-4.37,2.98-.05,5.22,1.7,4.91,4.17-.35,2.83-2.09,4.36-4.98,4.22Z"/>
    <path class="cls-3" d="M262.57,128.14c-2.64.23-4.65-1-4.74-3.81-.08-2.77,1.38-4.64,4.59-4.59,3.3.05,5.31,1.59,5.13,4.47-.18,2.9-2.06,4.04-4.98,3.92Z"/>
    <path class="cls-3" d="M309.66,144.53c-2.91,0-5.16-.76-5.04-3.82.11-2.62,1.74-4.31,4.55-4.38,2.63-.07,5.03,2.16,4.79,4.55-.26,2.69-1.94,3.85-4.31,3.65Z"/>
    <path class="cls-3" d="M271.98,98.44c2.21.78,4.99.97,4.92,4.42-.06,3.1-2.35,3.56-4.65,3.52-2.66-.04-5.05-1-5.08-4.18-.03-3.02,2.55-3.21,4.81-3.75Z"/>
    <path class="cls-3" d="M326.54,149.63c-2.59-.61-4.65-1.78-4.2-4.74.4-2.63,2.36-3.64,4.92-3.36,2.58.28,4.21,1.64,3.91,4.39-.29,2.68-2.19,3.65-4.63,3.72Z"/>
    <path class="cls-3" d="M346.11,137.44c-.25,2.48-1.87,3.43-4.31,3.33-2.73-.12-4.58-1.48-4.56-4.27.03-2.99,2.36-3.38,4.76-3.33,2.69.06,4.12,1.37,4.11,4.28Z"/>
    <path class="cls-3" d="M281.84,126.6c-2.27-.32-4.19-1.29-4.17-3.8.02-2.59,2.17-3.56,4.35-3.55,2.15,0,4.39.91,4.39,3.51,0,2.73-2.12,3.6-4.57,3.84Z"/>
    <path class="cls-3" d="M290.57,96.68c2.66-.22,4.58.74,4.61,3.51.02,2.19-1.83,2.55-3.71,2.59-2.53.05-4.57-.9-4.81-3.47-.24-2.68,2.24-2.3,3.91-2.63Z"/>
    <path class="cls-3" d="M261,94.65c-2.35.04-4.36-.56-4.31-3.37.04-2.6,2.15-2.62,4.05-2.67,2.25-.05,4,.68,4.1,3.23.11,2.7-1.91,2.76-3.85,2.81Z"/>
    <path class="cls-2" d="M226.2,99.01c2.49,1.04,4.96,1.09,7.42-.09-1.85,2.25-5.37,2.29-7.42.09Z"/>
    <path class="cls-2" d="M233.61,91.09c-2.46-1.06-4.92-1.12-7.37.01,2.19-2.51,5.15-2.51,7.37-.01Z"/>
    <path class="cls-2" d="M224.03,93.07c-.43,1.83.05,3.52.75,5.18-2.22-1.44-3.73-2.99-.75-5.18Z"/>
    <path class="cls-3" d="M209.02,215.86c.77-.49,1.53-.97,2.3-1.46-.47.95-1.28,1.38-2.3,1.46Z"/>
    <path class="cls-2" d="M235.54,96.75c.37-.96.34-1.94.11-2.92,1.38,1.03,1.41,2-.11,2.92Z"/>
    <path class="cls-2" d="M225.43,91.57c-.48.52-.96,1.03-1.44,1.55-.03-.99.45-1.5,1.44-1.55Z"/>
    <path class="cls-3" d="M212.75,213.65c.61-.7,1.41-.86,2.29-.78-.56.85-1.49.64-2.29.78Z"/>
    <path class="cls-2" d="M224.73,98.21c.49.27.99.54,1.48.8-.62-.03-1.2-.14-1.48-.8Z"/>
    <path class="cls-3" d="M211.31,214.41c.5-.27,1-.53,1.5-.8-.28.67-.92.68-1.5.8Z"/>
    <path class="cls-3" d="M214.99,212.92c.26-.27.52-.53.78-.8-.26.27-.52.53-.78.8Z"/>
    <path class="cls-6" d="M239.88,74.68c-.28.51-.64,1.42-1.21.92-.54-.47.38-.91.75-1.31.15.13.3.26.46.39Z"/>
    <path class="cls-4" d="M142.16,183.9c-5.34.02-9.05-3.41-9.14-8.43-.09-4.95,4.45-9.42,9.45-9.31,5.01.11,9.21,4.05,9.27,8.68.06,5.04-4.16,9.04-9.58,9.06Z"/>
    <path class="cls-5" d="M274.62,217.42c-.01-.84-.21-1.75.76-2.26-.07.81.08,1.7-.76,2.26Z"/>
    <path class="cls-5" d="M295.45,75.27s21.97,12.81,40.27-2v-1.61l-3.27-.71-37,4.33Z"/>
    <path class="cls-3" d="M454.31,155.74l-8.38,6.61-8.98-1.81,1.86-2.72,6.43-3.54s5.03-2.43,6.63-2.9,5.31-.16,2.45,4.36Z"/>
    <ellipse class="cls-3" cx="182.87" cy="67.43" rx="23.53" ry="4.94" transform="translate(.49 136.18) rotate(-40.9)"/>
    <ellipse class="cls-5" cx="228.02" cy="60.99" rx="23.53" ry="4.94" transform="translate(-3.7 105.94) rotate(-25.95)"/>
    <path class="cls-2" d="M342.02,112.53s-1.98-1.81-1.1-2.95,37.83-11.8,39.76-12.71,1.9-2.35,1.9-2.35c.05-8.06-13.13-2.73-18.11-1.15s-18.63-3.26-25.19-4.71-19.77,3.65-19.77,3.65l22.51,20.22Z"/>
  </g>
  <g>
    <g>
      <path class="cls-4" d="M592.54,219.41c-1.61,7.8-3.7,14.57-6.28,20.3-2.58,5.74-5.88,10.47-9.89,14.19-4.02,3.73-8.83,6.51-14.45,8.34-5.62,1.83-12.28,2.75-19.96,2.75-8.37,0-15.77-1.49-22.19-4.47-6.43-2.98-11.84-7.17-16.26-12.56-4.42-5.39-7.74-11.81-9.98-19.27-2.24-7.45-3.36-15.66-3.36-24.6,0-6.65,1.09-13.3,3.27-19.96,2.18-6.65,5.51-12.62,9.98-17.89,4.47-5.27,10.06-9.58,16.77-12.9,6.71-3.33,14.54-4.99,23.49-4.99,7.23,0,13.59.89,19.1,2.67,5.51,1.78,10.21,4.33,14.11,7.66,3.9,3.33,7.11,7.34,9.63,12.04,2.52,4.7,4.41,9.98,5.68,15.83l-28.73,4.47c-4.24-9.29-10.09-13.94-17.55-13.94-6.88,0-12.04,2.44-15.48,7.31-3.44,4.88-5.16,11.84-5.16,20.9,0,4.47.46,8.55,1.38,12.22.92,3.67,2.24,6.83,3.96,9.46,1.72,2.64,3.73,4.7,6.02,6.19,2.29,1.49,4.82,2.24,7.57,2.24,5.16,0,9.52-1.95,13.08-5.85,3.55-3.9,5.73-9,6.54-15.31l28.73,5.16Z"/>
      <path class="cls-4" d="M675.47,267.58l-6.02-23.23-29.25-.52-6.19,22.02-35.61-4.99,37.51-112.35,38.54-.34,34.75,113.9-33.72,5.51ZM654.65,183.97l-9.12,39.23,19.44.69-10.32-39.92Z"/>
      <path class="cls-4" d="M809.32,261.73v-50.76l-18.75,49.9h-22.37l-17.55-49.72-.17,51.27-31.49-1.03-.17-108.91,36.48-2.93,24.43,58.5,26.84-60.91,36.3,5.68-1.72,108.56-31.83.34Z"/>
      <path class="cls-4" d="M948.17,188.44c0,6.65-1.15,12.85-3.44,18.58-2.3,5.74-5.76,10.7-10.41,14.88-4.65,4.19-10.5,7.48-17.55,9.89-7.05,2.41-15.4,3.61-25.03,3.61l1.38,23.92-32.86,2.06-2.75-109.6c6.42-1.61,12.36-2.75,17.81-3.44,5.45-.69,10.93-1.03,16.43-1.03,9.29,0,17.46.98,24.52,2.93,7.05,1.95,12.93,4.7,17.64,8.26,4.7,3.56,8.26,7.89,10.67,12.99,2.41,5.11,3.61,10.75,3.61,16.95ZM914.27,190.33c0-3.67-1.09-6.88-3.27-9.63-2.18-2.75-5.97-4.13-11.36-4.13-1.49,0-2.95.12-4.39.34-1.44.23-3.24.63-5.42,1.2l.69,27.01c1.83.34,3.61.52,5.33.52,3.9,0,7.05-.49,9.46-1.46,2.41-.97,4.27-2.18,5.59-3.61,1.32-1.43,2.21-3.07,2.67-4.9.46-1.83.69-3.61.69-5.33Z"/>
      <path class="cls-4" d="M1072.38,186.89c-1.03-1.83-2.04-3.47-3.01-4.9-.98-1.43-2.12-2.64-3.44-3.61-1.32-.97-2.87-1.72-4.65-2.24-1.78-.52-3.99-.77-6.62-.77-3.67,0-6.88.8-9.64,2.41-2.75,1.61-5.08,3.87-6.97,6.8s-3.33,6.37-4.3,10.32c-.98,3.96-1.46,8.29-1.46,12.99,0,9.29,1.72,16.78,5.16,22.45s8.6,8.52,15.48,8.52c2.06,0,4.16-.46,6.28-1.38,2.12-.92,4.04-2.24,5.76-3.96,1.72-1.72,3.12-3.79,4.22-6.19,1.09-2.41,1.69-5.1,1.81-8.09l-24.26,1.03-.69-20.82,54.71-.86c.69,7.91,1.03,14.34,1.03,19.27,0,7.91-1.38,14.8-4.13,20.65-2.75,5.85-6.45,10.75-11.1,14.71-4.65,3.96-10.09,6.91-16.34,8.86-6.25,1.95-12.88,2.93-19.87,2.93-9.87,0-18.15-1.63-24.86-4.9-6.71-3.27-12.19-7.71-16.43-13.33-4.24-5.62-7.29-12.1-9.12-19.44-1.84-7.34-2.75-15.08-2.75-23.23,0-7.57,1.23-14.71,3.7-21.42,2.47-6.71,6.05-12.62,10.75-17.72,4.7-5.1,10.47-9.15,17.29-12.13,6.82-2.98,14.65-4.47,23.49-4.47,6.77,0,12.62.6,17.55,1.81,4.93,1.2,9.29,2.95,13.08,5.25,3.79,2.3,7.11,5.11,9.98,8.43,2.87,3.33,5.56,7.17,8.09,11.53l-28.73,11.53Z"/>
      <path class="cls-4" d="M1184.04,267.58l-6.02-23.23-29.25-.52-6.19,22.02-35.61-4.99,37.51-112.35,38.54-.34,34.75,113.9-33.72,5.51ZM1163.23,183.97l-9.12,39.23,19.44.69-10.32-39.92Z"/>
      <path class="cls-4" d="M1298.97,275.15c-3.44-1.61-6.74-3.99-9.89-7.14s-5.97-6.71-8.43-10.67c-2.47-3.96-4.56-8.17-6.28-12.65-1.72-4.47-2.93-8.83-3.61-13.08-1.26.12-2.38.2-3.36.26-.98.06-2.09.09-3.36.09l1.38,29.25-36.3,2.06-2.75-109.77c7-1.72,13.85-2.98,20.56-3.79,6.71-.8,13.39-1.2,20.04-1.2,8.83,0,16.57.98,23.23,2.93,6.65,1.95,12.22,4.65,16.69,8.09s7.86,7.48,10.15,12.13c2.29,4.65,3.44,9.66,3.44,15.05,0,7.46-1.61,14.48-4.82,21.08-3.21,6.6-8.26,11.9-15.14,15.91,1.83,7.8,4.76,14.22,8.77,19.27,4.01,5.05,8.6,9.06,13.76,12.04l-24.09,20.13ZM1286.59,190.5c0-1.72-.2-3.44-.6-5.16-.4-1.72-1.2-3.33-2.41-4.82-1.2-1.49-2.84-2.69-4.9-3.61-2.06-.92-4.82-1.38-8.26-1.38-1.26,0-2.55.09-3.87.26-1.32.17-2.78.37-4.39.6,0,4.47.06,9.55.17,15.23.11,5.68.29,10.75.52,15.23.92.12,1.75.17,2.49.17h2.32c4.01,0,7.25-.54,9.72-1.63,2.47-1.09,4.39-2.44,5.76-4.04,1.38-1.61,2.29-3.38,2.75-5.33.46-1.95.69-3.79.69-5.51Z"/>
      <path class="cls-4" d="M1334.42,262.77c.11-8.26.23-17.4.34-27.44.11-10.04.17-20.27.17-30.71s-.09-20.73-.26-30.88c-.17-10.15-.49-19.47-.95-27.96l32.35.86c.34,8.72.6,18.38.77,28.99.17,10.61.23,21.22.17,31.83-.06,10.61-.17,20.79-.34,30.54-.17,9.75-.43,18.12-.77,25.12l-31.49-.34Z"/>
      <path class="cls-4" d="M1474.12,231.8c0,6.31-1.35,11.56-4.04,15.74-2.7,4.19-6.28,7.57-10.75,10.15s-9.58,4.41-15.31,5.51c-5.74,1.09-11.64,1.63-17.72,1.63-4.82,0-10.41-.4-16.77-1.2-6.37-.8-13.74-2.24-22.11-4.3l-2.24-109.94c5.16-.8,10.18-1.35,15.05-1.63,4.87-.29,9.49-.43,13.85-.43,17.43,0,30.51,2.61,39.23,7.83,8.72,5.22,13.08,13.79,13.08,25.72,0,2.98-.43,5.71-1.29,8.17-.86,2.47-1.95,4.62-3.27,6.45-1.32,1.84-2.73,3.33-4.22,4.47-1.49,1.15-2.93,1.89-4.3,2.24,2.18.46,4.47,1.41,6.88,2.84,2.41,1.44,4.65,3.38,6.71,5.85,2.06,2.47,3.79,5.45,5.16,8.95,1.38,3.5,2.06,7.48,2.06,11.96ZM1436.78,184.31c0-3.33-1.26-6.11-3.79-8.34-2.52-2.24-6.71-3.07-12.56-2.49v19.96c4.47.69,8.32.26,11.53-1.29,3.21-1.55,4.82-4.16,4.82-7.83ZM1441.43,228.36c0-1.72-.32-3.44-.95-5.16-.63-1.72-1.72-3.24-3.27-4.56-1.55-1.32-3.67-2.29-6.37-2.93-2.7-.63-6.17-.77-10.41-.43v22.02c3.55,1.38,6.71,2.06,9.46,2.06,2.06,0,3.84-.34,5.33-1.03,1.49-.69,2.69-1.55,3.61-2.58.92-1.03,1.58-2.21,1.98-3.53.4-1.32.6-2.61.6-3.87Z"/>
      <path class="cls-4" d="M1554.64,267.58l-6.02-23.23-29.25-.52-6.19,22.02-35.61-4.99,37.51-112.35,38.54-.34,34.75,113.9-33.72,5.51ZM1533.82,183.97l-9.12,39.23,19.44.69-10.32-39.92Z"/>
      <path class="cls-4" d="M1653.05,261.48c-6.31-.17-12.85-.26-19.61-.26-5.51,0-11.16.03-16.95.09-5.79.06-11.9.37-18.32.95-.34-8.95-.63-17.46-.86-25.55-.23-8.09-.34-16.14-.34-24.17,0-10.44.2-20.9.6-31.4.4-10.5,1.23-21.94,2.49-34.32l34.75,1.89c-.8,8.03-1.44,15.6-1.89,22.71-.46,7.11-.77,14.05-.95,20.82-.17,6.77-.17,13.54,0,20.3.17,6.77.43,13.76.77,20.99h9.21c2.69,0,5.48.03,8.34.09,2.87.06,6.02.15,9.46.26,3.44.12,7.51.29,12.22.52v28.04c-6.31-.46-12.62-.77-18.93-.95Z"/>
      <path class="cls-4" d="M1776.06,207.88c0,12.28-2.7,22.68-8.09,31.23-5.39,8.55-12.56,15.14-21.51,19.79-8.95,4.65-19.21,7.28-30.8,7.91-11.59.63-23.57-.77-35.96-4.22-.23-8.83-.37-17.32-.43-25.46-.06-8.14-.09-16.17-.09-24.09,0-10.44.09-20.79.26-31.06.17-10.26.43-21.13.77-32.6,13.08-2.29,25.43-2.58,37.08-.86,11.64,1.72,21.82,5.19,30.54,10.41,8.72,5.22,15.6,11.99,20.65,20.3,5.05,8.32,7.57,17.87,7.57,28.65ZM1743.2,206.68c0-3.44-.55-6.97-1.63-10.58-1.09-3.61-2.81-6.85-5.16-9.72-2.35-2.87-5.36-5.16-9.03-6.88-3.67-1.72-8.09-2.47-13.25-2.24,0,5.39-.03,10.41-.09,15.05-.06,4.65-.09,9.23-.09,13.76s.03,9.15.09,13.85c.06,4.7.14,9.81.26,15.31,5.27.58,9.75.06,13.42-1.55,3.67-1.61,6.65-3.84,8.95-6.71,2.29-2.87,3.96-6.11,4.99-9.72s1.55-7.14,1.55-10.58Z"/>
      <path class="cls-4" d="M1789.14,262.77c.11-8.26.23-17.4.34-27.44.11-10.04.17-20.27.17-30.71s-.09-20.73-.26-30.88c-.17-10.15-.49-19.47-.95-27.96l32.35.86c.34,8.72.6,18.38.77,28.99.17,10.61.23,21.22.17,31.83-.06,10.61-.17,20.79-.34,30.54-.17,9.75-.43,18.12-.77,25.12l-31.49-.34Z"/>
    </g>
    <g>
      <path class="cls-4" d="M799.09,287.84h5.84v34.29h20.01v5.68h-25.86v-39.97Z"/>
      <path class="cls-4" d="M829.41,327.81l17.64-41.68h.39l17.53,41.68h-6.73l-12.79-32.42,4.19-2.81-14.39,35.23h-5.84ZM840.16,312.81h14.28l1.93,5.02h-17.97l1.76-5.02Z"/>
      <path class="cls-4" d="M898.94,320.31c0,3.27-.63,6.07-1.9,8.41s-3,4.12-5.21,5.35c-2.21,1.23-4.74,1.9-7.61,2.01v-5.68c2.57-.15,4.69-1.04,6.34-2.67,1.65-1.64,2.48-4.16,2.48-7.58v-32.31h5.9v32.47Z"/>
      <path class="cls-4" d="M907.76,307.85c0-2.76.52-5.37,1.57-7.83,1.05-2.46,2.5-4.65,4.36-6.56,1.86-1.91,4.02-3.4,6.48-4.47,2.46-1.07,5.11-1.6,7.94-1.6s5.48.53,7.94,1.6c2.46,1.07,4.64,2.56,6.53,4.47,1.89,1.91,3.37,4.1,4.44,6.56,1.07,2.46,1.6,5.07,1.6,7.83s-.53,5.48-1.6,7.94c-1.07,2.46-2.55,4.63-4.47,6.51-1.91,1.87-4.09,3.34-6.53,4.38-2.44,1.05-5.08,1.57-7.91,1.57s-5.48-.51-7.94-1.54c-2.46-1.03-4.62-2.47-6.48-4.33-1.86-1.86-3.31-4.02-4.36-6.48-1.05-2.46-1.57-5.15-1.57-8.05ZM913.82,307.85c0,2.06.37,3.98,1.1,5.76.73,1.78,1.76,3.34,3.09,4.69,1.32,1.34,2.86,2.39,4.6,3.14,1.75.75,3.63,1.13,5.65,1.13s3.84-.38,5.57-1.13c1.73-.75,3.24-1.8,4.55-3.14,1.3-1.34,2.32-2.9,3.06-4.69.73-1.78,1.1-3.7,1.1-5.76s-.38-3.98-1.13-5.76c-.75-1.78-1.77-3.35-3.06-4.71-1.29-1.36-2.81-2.43-4.58-3.2s-3.66-1.16-5.68-1.16-3.91.39-5.65,1.16c-1.75.77-3.27,1.84-4.58,3.2-1.31,1.36-2.31,2.94-3,4.74-.7,1.8-1.05,3.71-1.05,5.73Z"/>
      <path class="cls-4" d="M957.43,287.84h5.84v34.29h20.01v5.68h-25.86v-39.97Z"/>
      <path class="cls-4" d="M991.94,287.84h5.84v34.29h20.01v5.68h-25.86v-39.97Z"/>
      <path class="cls-4" d="M1022.27,327.81l17.64-41.68h.39l17.53,41.68h-6.73l-12.79-32.42,4.19-2.81-14.39,35.23h-5.84ZM1033.02,312.81h14.28l1.93,5.02h-17.97l1.76-5.02Z"/>
      <path class="cls-4" d="M1082.58,287.84h23.93v5.62h-18.08v11.96h15.82v5.68h-15.82v16.71h-5.84v-39.97Z"/>
      <path class="cls-4" d="M1126.08,287.84c2.1,0,4.03.28,5.82.83,1.78.55,3.32,1.36,4.6,2.43,1.29,1.07,2.28,2.38,2.98,3.94.7,1.56,1.05,3.35,1.05,5.38,0,1.58-.23,3.15-.69,4.71-.46,1.56-1.22,2.97-2.29,4.22-1.07,1.25-2.47,2.26-4.22,3.03-1.75.77-3.91,1.16-6.48,1.16h-5.84v14.28h-5.84v-39.97h10.92ZM1126.8,307.79c1.47,0,2.71-.23,3.72-.69,1.01-.46,1.8-1.05,2.37-1.76.57-.72.97-1.49,1.21-2.32.24-.83.36-1.61.36-2.34s-.12-1.52-.36-2.34c-.24-.83-.64-1.62-1.21-2.37-.57-.75-1.33-1.36-2.29-1.82-.96-.46-2.13-.69-3.53-.69h-6.06v14.33h5.79ZM1133.53,311.32l10.37,16.48h-6.84l-10.53-16.37,7-.11Z"/>
      <path class="cls-4" d="M1151.83,287.84h26.19v5.62h-20.34v11.41h18.14v5.68h-18.14v11.58h21.12v5.68h-26.96v-39.97Z"/>
      <path class="cls-4" d="M1187.94,287.84h26.19v5.62h-20.34v11.41h18.14v5.68h-18.14v11.58h21.12v5.68h-26.96v-39.97Z"/>
      <path class="cls-4" d="M1224.05,327.81v-39.97h11.08c3.97,0,7.35.6,10.14,1.79,2.79,1.19,5.04,2.79,6.75,4.8,1.71,2,2.95,4.22,3.72,6.64.77,2.43,1.16,4.85,1.16,7.28,0,2.98-.52,5.66-1.57,8.05-1.05,2.39-2.49,4.44-4.33,6.15-1.84,1.71-3.95,3.01-6.34,3.91-2.39.9-4.91,1.35-7.55,1.35h-13.07ZM1229.9,322.13h6.06c2.17,0,4.16-.31,5.98-.94,1.82-.62,3.4-1.54,4.74-2.76,1.34-1.21,2.37-2.7,3.09-4.47.72-1.76,1.08-3.77,1.08-6.01,0-2.5-.4-4.66-1.19-6.48-.79-1.82-1.87-3.33-3.25-4.52-1.38-1.19-2.9-2.08-4.58-2.65-1.67-.57-3.37-.85-5.1-.85h-6.84v28.67Z"/>
      <path class="cls-4" d="M1265.79,287.84h5.84v39.97h-5.84v-39.97Z"/>
      <path class="cls-4" d="M1286.41,287.84l12.85,32.2-3.31-.72,12.07-31.48h6.95l-17.81,41.79-17.75-41.79h7Z"/>
      <path class="cls-4" d="M1322.74,287.84h26.19v5.62h-20.34v11.41h18.14v5.68h-18.14v11.58h21.12v5.68h-26.96v-39.97Z"/>
      <path class="cls-4" d="M1405.88,324.72c-.63.44-1.52.95-2.67,1.52-1.16.57-2.52,1.06-4.08,1.46-1.56.4-3.28.59-5.16.55-3.12-.04-5.93-.59-8.41-1.65-2.48-1.07-4.59-2.53-6.31-4.38-1.73-1.86-3.05-3.99-3.97-6.4-.92-2.41-1.38-4.97-1.38-7.69,0-3.01.47-5.79,1.41-8.33.94-2.54,2.29-4.72,4.05-6.56,1.76-1.84,3.86-3.27,6.29-4.3,2.43-1.03,5.07-1.54,7.94-1.54,2.46,0,4.69.32,6.67.96,1.98.64,3.67,1.41,5.07,2.29l-2.43,5.51c-1.07-.73-2.37-1.44-3.91-2.12-1.54-.68-3.29-1.02-5.24-1.02-1.84,0-3.59.37-5.27,1.1-1.67.74-3.14,1.78-4.41,3.14-1.27,1.36-2.27,2.94-3,4.74-.74,1.8-1.1,3.75-1.1,5.84s.33,4,.99,5.82,1.62,3.39,2.87,4.71c1.25,1.32,2.73,2.35,4.44,3.09,1.71.74,3.65,1.1,5.82,1.1s3.87-.31,5.43-.94c1.56-.62,2.84-1.34,3.83-2.15l2.54,5.24Z"/>
      <path class="cls-4" d="M1414.7,287.84h5.84v34.29h20.01v5.68h-25.86v-39.97Z"/>
      <path class="cls-4" d="M1454.45,313.53c0,1.69.42,3.22,1.27,4.58.85,1.36,1.97,2.44,3.36,3.25,1.4.81,2.98,1.21,4.74,1.21s3.46-.4,4.88-1.21c1.41-.81,2.54-1.89,3.36-3.25.83-1.36,1.24-2.88,1.24-4.58v-25.69h5.79v25.8c0,2.94-.68,5.5-2.04,7.69-1.36,2.19-3.21,3.89-5.54,5.1-2.33,1.21-4.9,1.82-7.69,1.82s-5.45-.61-7.75-1.82c-2.3-1.21-4.13-2.91-5.49-5.1-1.36-2.19-2.04-4.75-2.04-7.69v-25.8h5.9v25.69Z"/>
      <path class="cls-4" d="M1500.38,287.84c4.01,0,7.18.83,9.51,2.48,2.33,1.65,3.5,4.17,3.5,7.55,0,2.21-.5,4.1-1.49,5.68-.99,1.58-2.38,2.8-4.16,3.67-1.78.86-3.89,1.33-6.31,1.41l-.83-3.03c2.79.04,5.3.5,7.53,1.38,2.22.88,3.99,2.13,5.29,3.75,1.3,1.62,1.96,3.53,1.96,5.73,0,2.02-.38,3.76-1.13,5.21-.75,1.45-1.76,2.63-3.03,3.53-1.27.9-2.7,1.56-4.3,1.98-1.6.42-3.26.63-4.99.63h-12.13v-39.97h10.59ZM1501.43,305.09c2.06,0,3.56-.59,4.49-1.76.94-1.18,1.41-2.59,1.41-4.25,0-1.91-.6-3.33-1.79-4.25-1.19-.92-2.84-1.38-4.93-1.38h-4.96v11.63h5.79ZM1501.65,322.35c1.43,0,2.73-.21,3.89-.63,1.16-.42,2.08-1.07,2.76-1.93.68-.86,1.02-1.96,1.02-3.28,0-1.47-.4-2.62-1.19-3.45-.79-.83-1.81-1.42-3.06-1.79-1.25-.37-2.52-.55-3.8-.55h-5.62v11.63h6.01Z"/>
    </g>
  </g>
</svg>